<?xml version="1.0" standalone="no"?>
<!DOCTYPE svg PUBLIC "-//W3C//DTD SVG 20010904//EN"
 "http://www.w3.org/TR/2001/REC-SVG-20010904/DTD/svg10.dtd">
<svg version="1.0" xmlns="http://www.w3.org/2000/svg"
 width="300.000000pt" height="300.000000pt" viewBox="0 0 300.000000 300.000000"
 preserveAspectRatio="xMidYMid meet">
<metadata>
Created by potrace 1.11, written by Peter Selinger 2001-2013
</metadata>
<g transform="translate(0.000000,300.000000) scale(0.100000,-0.100000)"
fill="#000000" stroke="none">
<path d="M193 1966 c-4 -6 -7 -809 -4 -921 1 -19 7 -20 213 -18 183 1 243 5
317 19 36 7 160 77 193 109 62 59 116 148 135 219 14 52 12 207 -3 258 -54
181 -210 312 -399 334 -81 10 -446 10 -452 0z m432 -190 c51 -10 116 -47 149
-87 86 -102 86 -277 0 -377 -63 -74 -114 -91 -287 -95 l-87 -2 -1 30 c-3 122
-1 524 4 531 6 11 165 11 222 0z"/>
<path d="M1131 1970 l-34 -5 -1 -468 c-1 -305 2 -467 9 -467 18 -1 170 -2 188
-1 15 1 17 17 17 181 l0 180 33 1 c17 0 118 1 222 2 l190 2 0 95 0 94 -222 -1
-223 -1 0 99 c0 96 1 99 23 100 12 0 126 1 252 2 l230 2 3 93 3 92 -28 1
c-199 3 -636 3 -662 -1z"/>
<path d="M1871 1970 c-4 -3 -7 -215 -6 -472 l0 -468 45 -1 c96 -2 151 -1 156
4 3 2 5 138 6 301 0 163 2 296 3 296 1 0 60 -88 130 -195 70 -107 131 -193
135 -190 5 3 65 91 134 195 69 105 127 190 129 190 1 0 2 -135 2 -300 l0 -300
30 -1 c69 -2 167 0 172 4 6 7 6 927 -1 934 -4 4 -141 7 -212 3 -10 0 -66 -85
-168 -253 -11 -18 -35 -56 -54 -86 l-33 -53 -121 193 c-66 107 -121 195 -123
197 -5 5 -217 7 -224 2z"/>
</g>
</svg>
